<?xml version="1.0" encoding="UTF-8" standalone="no"?>
<svg
   xmlns:dc="http://purl.org/dc/elements/1.1/"
   xmlns:cc="http://creativecommons.org/ns#"
   xmlns:rdf="http://www.w3.org/1999/02/22-rdf-syntax-ns#"
   xmlns:svg="http://www.w3.org/2000/svg"
   xmlns="http://www.w3.org/2000/svg"
   xmlns:sodipodi="http://sodipodi.sourceforge.net/DTD/sodipodi-0.dtd"
   xmlns:inkscape="http://www.inkscape.org/namespaces/inkscape"
   width="273.06668"
   height="273.06668"
   viewBox="0 0 256 256"
   id="svg2"
   version="1.1"
   inkscape:version="0.91 r13725"
   sodipodi:docname="clock_play.svg">
  <metadata
     id="metadata10">
    <rdf:RDF>
      <cc:Work
         rdf:about="">
        <dc:format>image/svg+xml</dc:format>
        <dc:type
           rdf:resource="http://purl.org/dc/dcmitype/StillImage" />
        <dc:title />
      </cc:Work>
    </rdf:RDF>
  </metadata>
  <defs
     id="defs8" />
  <sodipodi:namedview
     pagecolor="#ffffff"
     bordercolor="#666666"
     borderopacity="1"
     objecttolerance="10"
     gridtolerance="10"
     guidetolerance="10"
     inkscape:pageopacity="0"
     inkscape:pageshadow="2"
     inkscape:window-width="1440"
     inkscape:window-height="778"
     id="namedview6"
     showgrid="false"
     inkscape:zoom="1.8101934"
     inkscape:cx="-2.6178373"
     inkscape:cy="131.84994"
     inkscape:window-x="84"
     inkscape:window-y="123"
     inkscape:window-maximized="0"
     inkscape:current-layer="svg2"
     fit-margin-top="0"
     fit-margin-left="0"
     fit-margin-right="0"
     fit-margin-bottom="0" />
  <path
     style="fill:#000000;fill-opacity:1"
     d="M 98.814453 0 C 44.466745 0 -1.8947806e-14 44.466745 0 98.814453 C 0 153.16216 44.466745 197.62891 98.814453 197.62891 C 105.72988 197.62891 112.48362 196.90382 119.00781 195.53516 C 119.06833 186.0181 120.86461 176.91855 124.07617 168.51953 C 116.19524 171.36662 107.69198 172.92383 98.814453 172.92383 C 57.806639 172.92383 24.703125 139.82227 24.703125 98.814453 C 24.703125 57.806639 57.806639 24.703125 98.814453 24.703125 C 139.82227 24.703125 172.92383 57.806639 172.92383 98.814453 C 172.92383 107.69198 171.36662 116.19524 168.51953 124.07617 C 176.91855 120.86461 186.0181 119.06833 195.53516 119.00781 C 196.90382 112.48362 197.62891 105.72988 197.62891 98.814453 C 197.62891 44.466745 153.16216 -9.4739031e-15 98.814453 0 z M 86.462891 49.900391 L 86.462891 104.24805 L 90.414062 107.46094 L 102.76562 119.8125 L 111.16602 129.19922 L 128.95312 111.41211 L 119.56445 103.01367 L 111.16602 94.615234 L 111.16602 49.900391 L 86.462891 49.900391 z M 176.77539 157.51758 L 176.77539 159.34375 C 177.08729 158.94346 177.39727 158.54185 177.70312 158.13672 L 176.77539 157.51758 z "
     transform="scale(0.93749995,0.93749995)"
     id="path4" />
  <path
     style="fill:#000000;fill-opacity:1"
     d="M 176.77539 157.51758 L 176.77539 234.55078 L 234.55078 196.03516 L 176.77539 157.51758 z "
     transform="scale(0.93749995,0.93749995)"
     id="rect4158" />
</svg>
